<svg width="417" height="670" viewBox="0 0 417 670" fill="#170332" xmlns="http://www.w3.org/2000/svg">
<path d="M7.02093 266.974C127.171 93.7133 298.593 11.7417 424.632 56.3727C451.018 65.7227 491.288 86.2302 530.367 136.411C491.997 96.7864 454.637 81.1012 429.83 74.1743C314.355 41.9023 171.438 115.363 74.3834 259.397L7.02093 266.974Z" fill="#170332"/>
<path d="M0.333496 434.019C2.2958 450.774 14.4726 540.625 92.1983 594.352C136.672 625.087 181.221 629.224 199.696 630.704C293.902 638.261 362.975 586.305 382.024 570.913C298.773 620.944 198.668 617.881 132.016 564.94C71.6594 517.009 60.9662 445.87 58.7518 427.448L0.333496 434.019Z" fill="#170332"/>
<path d="M637.568 362.342C616.07 414.627 565.344 515.008 456.553 586.907C411.871 616.439 274.62 707.144 143.685 651.885C88.6707 628.675 54.3698 587.958 35.8133 561.14C55.4013 584.245 88.8244 616.353 138.214 633.156C262.408 675.42 383.349 585.463 424.101 555.156C505.139 494.88 547.86 419.388 569.682 369.978L637.581 362.34L637.568 362.342Z" fill="#170332"/>
<path d="M637.798 196.67C632.341 177.72 596.758 60.9492 486.52 16.8052C420.671 -9.55892 359.997 2.72597 331.259 8.93445C196.235 38.1093 100.774 147.766 102.281 149.667C103.096 150.701 172.169 66.8755 291.398 39.9172C336.735 29.6679 415.435 13.4921 485.609 60.7063C553.963 106.689 570.117 183.58 573.66 203.237C595.036 201.053 616.423 198.854 637.798 196.67Z" fill="#170332"/>
<defs>
<linearGradient id="paint0_linear_239_1303" x1="0.333496" y1="334.982" x2="637.798" y2="334.982" gradientUnits="userSpaceOnUse">
<stop stop-color="#8D4B9D"/>
<stop offset="1" stop-color="#4C1769"/>
</linearGradient>
<linearGradient id="paint1_linear_239_1303" x1="637.821" y1="321.119" x2="0.333496" y2="321.119" gradientUnits="userSpaceOnUse">
<stop stop-color="#8D4B9D"/>
<stop offset="1" stop-color="#4C1769"/>
</linearGradient>
<linearGradient id="paint2_linear_239_1303" x1="602.781" y1="333.053" x2="-37.2494" y2="333.053" gradientUnits="userSpaceOnUse">
<stop stop-color="#854496"/>
<stop offset="1" stop-color="#612C8B"/>
</linearGradient>
<linearGradient id="paint3_linear_239_1303" x1="65.4799" y1="145.736" x2="591.22" y2="86.6001" gradientUnits="userSpaceOnUse">
<stop stop-color="#8D4B9D"/>
<stop offset="1" stop-color="#4C1769"/>
</linearGradient>
</defs>
</svg>
